<mxfile host="app.diagrams.net" modified="2023-05-04T17:47:10.588Z" agent="Mozilla/5.0 (Windows NT 10.0; Win64; x64) AppleWebKit/537.36 (KHTML, like Gecko) Chrome/112.0.0.0 Safari/537.36" etag="iSxWrPu-lMiZOcQCwgrO" version="21.2.7" type="google">
  <diagram id="C5RBs43oDa-KdzZeNtuy" name="Page-1">
    <mxGraphModel grid="1" page="1" gridSize="10" guides="1" tooltips="1" connect="1" arrows="1" fold="1" pageScale="1" pageWidth="827" pageHeight="1169" math="0" shadow="0">
      <root>
        <mxCell id="WIyWlLk6GJQsqaUBKTNV-0" />
        <mxCell id="WIyWlLk6GJQsqaUBKTNV-1" parent="WIyWlLk6GJQsqaUBKTNV-0" />
        <mxCell id="WIyWlLk6GJQsqaUBKTNV-3" value="Txutxucão&lt;br&gt;&lt;br&gt;b &quot;Oi eu sou o txutxucâo, au au&quot; !" style="rounded=1;whiteSpace=wrap;html=1;fontSize=12;glass=0;strokeWidth=1;shadow=0;" vertex="1" parent="WIyWlLk6GJQsqaUBKTNV-1">
          <mxGeometry x="170" y="40" width="220" height="120" as="geometry" />
        </mxCell>
        <mxCell id="WIyWlLk6GJQsqaUBKTNV-5" value="No" style="edgeStyle=orthogonalEdgeStyle;rounded=0;html=1;jettySize=auto;orthogonalLoop=1;fontSize=11;endArrow=block;endFill=0;endSize=8;strokeWidth=1;shadow=0;labelBackgroundColor=none;" edge="1" parent="WIyWlLk6GJQsqaUBKTNV-1" source="WIyWlLk6GJQsqaUBKTNV-6" target="WIyWlLk6GJQsqaUBKTNV-7">
          <mxGeometry y="10" relative="1" as="geometry">
            <mxPoint as="offset" />
            <Array as="points">
              <mxPoint x="390" y="760" />
              <mxPoint x="390" y="760" />
            </Array>
          </mxGeometry>
        </mxCell>
        <mxCell id="3od5XDxIfSN-zTo3cWXo-20" style="edgeStyle=orthogonalEdgeStyle;rounded=0;orthogonalLoop=1;jettySize=auto;html=1;exitX=0;exitY=0.5;exitDx=0;exitDy=0;entryX=1;entryY=0.5;entryDx=0;entryDy=0;" edge="1" parent="WIyWlLk6GJQsqaUBKTNV-1" source="WIyWlLk6GJQsqaUBKTNV-6" target="3od5XDxIfSN-zTo3cWXo-17">
          <mxGeometry relative="1" as="geometry">
            <Array as="points">
              <mxPoint x="100" y="765" />
            </Array>
          </mxGeometry>
        </mxCell>
        <mxCell id="WIyWlLk6GJQsqaUBKTNV-6" value="e &quot;Iai txutxucão você gostou ?&quot;" style="rhombus;whiteSpace=wrap;html=1;shadow=0;fontFamily=Helvetica;fontSize=12;align=center;strokeWidth=1;spacing=6;spacingTop=-4;" vertex="1" parent="WIyWlLk6GJQsqaUBKTNV-1">
          <mxGeometry x="170" y="670" width="220" height="190" as="geometry" />
        </mxCell>
        <mxCell id="3od5XDxIfSN-zTo3cWXo-25" style="edgeStyle=orthogonalEdgeStyle;rounded=0;orthogonalLoop=1;jettySize=auto;html=1;" edge="1" parent="WIyWlLk6GJQsqaUBKTNV-1" source="WIyWlLk6GJQsqaUBKTNV-7" target="3od5XDxIfSN-zTo3cWXo-28">
          <mxGeometry relative="1" as="geometry">
            <mxPoint x="515" y="880" as="targetPoint" />
          </mxGeometry>
        </mxCell>
        <mxCell id="WIyWlLk6GJQsqaUBKTNV-7" value="&quot;Não, ficou horrivel.&quot;" style="rounded=1;whiteSpace=wrap;html=1;fontSize=12;glass=0;strokeWidth=1;shadow=0;" vertex="1" parent="WIyWlLk6GJQsqaUBKTNV-1">
          <mxGeometry x="450" y="747.5" width="130" height="52.5" as="geometry" />
        </mxCell>
        <mxCell id="gyeZ8tvmbAzBuNIxOiYl-7" style="edgeStyle=orthogonalEdgeStyle;rounded=0;orthogonalLoop=1;jettySize=auto;html=1;entryX=0.5;entryY=0;entryDx=0;entryDy=0;" edge="1" parent="WIyWlLk6GJQsqaUBKTNV-1" source="3od5XDxIfSN-zTo3cWXo-4" target="3od5XDxIfSN-zTo3cWXo-6">
          <mxGeometry relative="1" as="geometry" />
        </mxCell>
        <mxCell id="3od5XDxIfSN-zTo3cWXo-4" value="Xuxa&lt;br&gt;e &quot;Oie amiguinho, eu sou a xuxa&quot;&lt;br&gt;&lt;br&gt;e &quot;Meu deus senta lá Claudia !&quot;" style="rounded=1;whiteSpace=wrap;html=1;" vertex="1" parent="WIyWlLk6GJQsqaUBKTNV-1">
          <mxGeometry x="170" y="210" width="220" height="90" as="geometry" />
        </mxCell>
        <mxCell id="3od5XDxIfSN-zTo3cWXo-7" style="edgeStyle=orthogonalEdgeStyle;rounded=0;orthogonalLoop=1;jettySize=auto;html=1;" edge="1" parent="WIyWlLk6GJQsqaUBKTNV-1" source="3od5XDxIfSN-zTo3cWXo-6" target="3od5XDxIfSN-zTo3cWXo-8">
          <mxGeometry relative="1" as="geometry">
            <mxPoint x="300" y="440" as="targetPoint" />
          </mxGeometry>
        </mxCell>
        <mxCell id="gyeZ8tvmbAzBuNIxOiYl-5" style="edgeStyle=orthogonalEdgeStyle;rounded=0;orthogonalLoop=1;jettySize=auto;html=1;" edge="1" parent="WIyWlLk6GJQsqaUBKTNV-1" source="3od5XDxIfSN-zTo3cWXo-8" target="WIyWlLk6GJQsqaUBKTNV-6">
          <mxGeometry relative="1" as="geometry" />
        </mxCell>
        <mxCell id="3od5XDxIfSN-zTo3cWXo-8" value="e &quot;Eu quero txuu, eu quero txaa, eu quero txutxatxatxutxa &quot;&lt;br&gt;&lt;br&gt;e&quot;Iai txutxucão você gostou ?&quot;" style="rounded=1;whiteSpace=wrap;html=1;" vertex="1" parent="WIyWlLk6GJQsqaUBKTNV-1">
          <mxGeometry x="170" y="525" width="220" height="95" as="geometry" />
        </mxCell>
        <mxCell id="3od5XDxIfSN-zTo3cWXo-6" value="b &quot;Eita como habla, manda um hit ai para nós!&quot;" style="rounded=1;whiteSpace=wrap;html=1;" vertex="1" parent="WIyWlLk6GJQsqaUBKTNV-1">
          <mxGeometry x="170" y="360" width="220" height="90" as="geometry" />
        </mxCell>
        <mxCell id="3od5XDxIfSN-zTo3cWXo-23" style="edgeStyle=orthogonalEdgeStyle;rounded=0;orthogonalLoop=1;jettySize=auto;html=1;exitX=0.5;exitY=1;exitDx=0;exitDy=0;" edge="1" parent="WIyWlLk6GJQsqaUBKTNV-1" source="3od5XDxIfSN-zTo3cWXo-17" target="3od5XDxIfSN-zTo3cWXo-26">
          <mxGeometry relative="1" as="geometry">
            <mxPoint x="40" y="880" as="targetPoint" />
            <Array as="points">
              <mxPoint x="40" y="840" />
              <mxPoint x="40" y="840" />
            </Array>
          </mxGeometry>
        </mxCell>
        <mxCell id="3od5XDxIfSN-zTo3cWXo-17" value="&quot;Sim, você é uma rainha ! .&quot;" style="rounded=1;whiteSpace=wrap;html=1;" vertex="1" parent="WIyWlLk6GJQsqaUBKTNV-1">
          <mxGeometry y="740" width="120" height="50" as="geometry" />
        </mxCell>
        <mxCell id="3od5XDxIfSN-zTo3cWXo-19" value="yes" style="text;html=1;align=center;verticalAlign=middle;resizable=0;points=[];autosize=1;strokeColor=none;fillColor=none;" vertex="1" parent="WIyWlLk6GJQsqaUBKTNV-1">
          <mxGeometry x="140" y="738" width="40" height="30" as="geometry" />
        </mxCell>
        <mxCell id="gyeZ8tvmbAzBuNIxOiYl-4" style="edgeStyle=orthogonalEdgeStyle;rounded=0;orthogonalLoop=1;jettySize=auto;html=1;entryX=0;entryY=0.5;entryDx=0;entryDy=0;" edge="1" parent="WIyWlLk6GJQsqaUBKTNV-1" source="3od5XDxIfSN-zTo3cWXo-26" target="gyeZ8tvmbAzBuNIxOiYl-0">
          <mxGeometry relative="1" as="geometry" />
        </mxCell>
        <mxCell id="3od5XDxIfSN-zTo3cWXo-26" value="b &quot;Obrigada Txutxucão se você quiser pode vir trabalhar junto com minhas paquitas.&quot;" style="rounded=1;whiteSpace=wrap;html=1;" vertex="1" parent="WIyWlLk6GJQsqaUBKTNV-1">
          <mxGeometry x="-20" y="850" width="130" height="70" as="geometry" />
        </mxCell>
        <mxCell id="gyeZ8tvmbAzBuNIxOiYl-3" style="edgeStyle=orthogonalEdgeStyle;rounded=0;orthogonalLoop=1;jettySize=auto;html=1;entryX=1;entryY=0.5;entryDx=0;entryDy=0;" edge="1" parent="WIyWlLk6GJQsqaUBKTNV-1" source="3od5XDxIfSN-zTo3cWXo-28" target="gyeZ8tvmbAzBuNIxOiYl-0">
          <mxGeometry relative="1" as="geometry" />
        </mxCell>
        <mxCell id="3od5XDxIfSN-zTo3cWXo-28" value="b &quot;Não curti, vou ir trabalhar com a fadinha do Brasil.&quot;" style="rounded=1;whiteSpace=wrap;html=1;" vertex="1" parent="WIyWlLk6GJQsqaUBKTNV-1">
          <mxGeometry x="455" y="850" width="120" height="60" as="geometry" />
        </mxCell>
        <mxCell id="gyeZ8tvmbAzBuNIxOiYl-0" value="e &quot;Valei meu deus, txutxucão me ajuda! A Claudia ta roubando os canudos das crianças.&quot;" style="rounded=1;whiteSpace=wrap;html=1;" vertex="1" parent="WIyWlLk6GJQsqaUBKTNV-1">
          <mxGeometry x="220" y="960" width="140" height="90" as="geometry" />
        </mxCell>
      </root>
    </mxGraphModel>
  </diagram>
</mxfile>
